<?xml version="1.0" standalone="no"?>
<!DOCTYPE svg PUBLIC "-//W3C//DTD SVG 20010904//EN"
 "http://www.w3.org/TR/2001/REC-SVG-20010904/DTD/svg10.dtd">
<svg version="1.0" xmlns="http://www.w3.org/2000/svg"
 width="512.000000pt" height="512.000000pt" viewBox="0 0 512.000000 512.000000"
 preserveAspectRatio="xMidYMid meet">

<g transform="translate(0.000000,512.000000) scale(0.100000,-0.100000)"
fill="#000000" stroke="none">
<path d="M2635 4746 c-27 -8 -76 -16 -107 -20 -32 -3 -93 -22 -137 -41 -43
-19 -85 -35 -92 -35 -31 0 -213 -64 -284 -100 -117 -60 -150 -85 -217 -168
-67 -84 -102 -155 -124 -252 -9 -36 -26 -81 -39 -100 -12 -19 -26 -46 -30 -60
-4 -14 -13 -32 -21 -40 -7 -9 -28 -47 -45 -85 -44 -95 -49 -185 -20 -321 29
-132 38 -159 71 -207 37 -55 57 -105 81 -202 29 -113 39 -198 29 -233 -14 -52
12 -487 40 -650 17 -100 61 -243 87 -286 14 -21 33 -58 43 -81 10 -24 41 -68
68 -98 28 -30 53 -63 56 -74 3 -10 33 -34 66 -53 39 -22 63 -43 66 -57 4 -16
14 -23 29 -23 13 0 50 -20 83 -45 33 -25 65 -45 72 -45 6 0 57 -25 113 -56 55
-31 111 -60 123 -64 16 -7 21 -15 17 -29 -3 -12 -12 -21 -19 -21 -22 0 -16
-18 12 -36 24 -16 129 -51 184 -61 42 -8 143 68 301 226 139 139 199 212 212
256 13 43 20 82 21 125 2 43 19 86 56 140 25 37 55 122 80 230 34 146 66 259
94 325 14 34 26 80 26 105 0 25 9 78 20 118 31 112 23 243 -14 229 -11 -4 -16
7 -21 42 -5 37 0 66 25 141 17 52 35 104 40 115 5 11 19 47 31 80 11 33 32 92
46 130 30 83 40 174 24 230 -11 41 -77 139 -126 188 -15 15 -22 27 -16 27 17
0 13 18 -4 22 -12 2 -6 13 20 43 37 41 70 104 60 114 -4 3 -11 -1 -16 -9 -9
-12 -9 -10 -3 5 14 38 16 82 5 120 -13 48 -5 58 20 26 13 -16 19 -40 20 -80 1
-50 2 -53 10 -26 13 40 2 108 -20 137 -17 22 -187 105 -291 142 -33 12 -76 46
-157 125 -148 144 -227 200 -306 217 -78 17 -177 17 -242 0z m205 -681 c5 -3
33 -9 62 -12 71 -8 118 -33 187 -101 32 -31 81 -70 109 -87 33 -19 55 -41 63
-60 6 -16 22 -53 34 -81 13 -28 28 -76 34 -105 6 -30 19 -97 31 -149 11 -52
22 -142 26 -200 3 -58 15 -168 26 -245 38 -265 38 -314 6 -500 -9 -57 -18 -76
-43 -100 -48 -46 -86 -75 -96 -75 -5 0 -9 -3 -9 -8 0 -4 -22 -22 -50 -40 -27
-18 -50 -37 -50 -42 0 -6 -7 -10 -15 -10 -8 0 -15 9 -15 20 0 13 -14 27 -39
40 -22 11 -46 28 -53 38 -23 32 -62 51 -105 50 -47 0 -115 37 -168 92 -16 16
-37 30 -47 30 -33 0 -19 19 20 25 20 4 58 13 83 21 38 12 48 20 52 42 7 34 -6
58 -35 65 -13 3 -49 13 -81 22 -58 16 -59 16 -101 -9 -51 -30 -108 -34 -158
-12 -68 30 -158 17 -158 -23 0 -15 11 -19 58 -24 32 -4 68 -4 80 -1 15 4 33
-3 60 -24 21 -17 50 -34 65 -37 15 -4 27 -9 27 -11 0 -8 -25 -48 -42 -68 -16
-18 -18 -18 -18 -2 0 9 -5 26 -11 37 -10 19 -12 19 -35 4 -14 -9 -29 -13 -35
-9 -16 9 -88 -28 -95 -48 -3 -10 -9 -18 -14 -18 -5 0 -23 -12 -41 -27 -18 -16
-40 -27 -50 -25 -9 2 -20 -2 -24 -8 -3 -5 -14 -10 -24 -10 -10 0 -24 -7 -31
-15 -8 -9 -26 -15 -45 -13 -43 3 -58 -11 -85 -77 -28 -70 -22 -97 26 -114 32
-12 39 -11 63 6 58 43 68 45 122 28 49 -17 78 -13 49 5 -13 8 -13 11 1 25 18
19 89 22 249 13 58 -4 111 -7 118 -7 6 -1 -6 -17 -28 -37 -22 -20 -38 -40 -37
-46 4 -18 -65 -36 -117 -30 -36 4 -47 2 -42 -6 4 -7 18 -12 32 -12 13 0 24 -4
24 -10 0 -5 -13 -10 -28 -10 -36 0 -58 -18 -66 -52 -6 -25 -4 -28 21 -28 19 0
44 -15 77 -45 l50 -45 -21 -22 c-11 -13 -24 -34 -28 -46 -5 -17 -12 -22 -25
-19 -11 3 -27 -1 -37 -9 -10 -7 -26 -14 -35 -14 -10 0 -18 -7 -18 -15 0 -18
-5 -19 -30 -3 -15 10 -22 9 -37 -4 -36 -31 -41 -30 -135 19 -18 9 -44 30 -57
46 -29 34 -77 57 -120 57 -21 0 -32 6 -36 21 -4 11 -18 24 -31 29 -16 6 -24
17 -24 33 0 31 -87 217 -101 217 -4 0 -11 15 -14 33 -4 17 -15 41 -24 52 -31
36 -49 98 -76 265 -32 194 -31 280 9 461 14 63 32 170 40 236 8 66 26 165 39
219 15 59 25 131 25 177 1 91 27 147 89 194 20 16 43 36 52 46 48 54 91 91
133 114 26 14 45 29 43 33 -9 15 72 24 235 27 191 3 236 6 245 14 7 8 162 2
175 -6z m678 -1385 l-1 -55 -8 55 c-4 30 -10 69 -13 85 l-6 30 15 -30 c8 -16
14 -55 13 -85z m-908 -256 c0 -14 16 -18 55 -16 11 1 31 -7 44 -17 l23 -18
-29 4 c-16 3 -46 -2 -67 -11 -28 -12 -56 -14 -112 -9 -41 3 -74 10 -74 15 0
23 45 45 81 41 31 -4 39 -2 49 16 12 23 30 20 30 -5z m-190 -79 c-16 -19 -30
-19 -30 -1 0 8 8 16 18 18 24 6 27 1 12 -17z m-50 -19 c0 -3 -4 -8 -10 -11 -5
-3 -10 -1 -10 4 0 6 5 11 10 11 6 0 10 -2 10 -4z m588 -148 c29 -37 18 -99
-27 -151 -14 -17 -14 -20 -1 -30 18 -14 14 -56 -6 -64 -8 -3 -14 -14 -14 -24
0 -25 -29 -69 -45 -69 -7 0 -17 -6 -23 -13 -11 -13 -64 -14 -93 -2 -9 3 -21
-1 -29 -10 -11 -13 -15 -12 -38 10 -15 15 -36 25 -53 25 -16 0 -29 4 -29 9 0
41 77 140 106 138 16 -2 19 4 16 42 -3 42 17 81 40 81 16 0 116 48 123 59 9
15 60 14 73 -1z"/>
<path d="M3004 3409 c-25 -11 -66 -18 -116 -18 l-76 -1 -49 -55 c-51 -57 -75
-118 -75 -191 0 -34 16 -64 34 -64 6 0 19 -11 30 -25 25 -33 38 -32 38 3 0 30
24 71 35 60 4 -3 2 -15 -4 -26 -6 -11 -7 -22 -4 -26 12 -11 43 -6 43 7 0 16
52 67 68 67 7 0 12 -9 12 -21 0 -34 20 -60 58 -77 33 -14 34 -16 15 -20 -32
-5 -29 -19 5 -26 76 -14 110 -16 135 -7 23 9 26 15 21 36 -4 15 -1 32 6 40 11
14 15 14 36 0 32 -20 54 -19 54 4 0 10 7 22 16 25 14 5 15 22 10 127 -6 132
-19 164 -78 195 -39 20 -161 16 -214 -7z m150 -115 c8 -3 12 -12 9 -20 -3 -8
4 -18 18 -23 30 -12 78 -50 64 -51 -6 0 -27 11 -47 25 -34 23 -41 24 -135 19
-92 -6 -97 -5 -82 11 24 25 140 52 173 39z m-93 -74 c11 0 19 -4 19 -10 0 -5
-13 -10 -30 -10 -16 0 -52 -5 -80 -11 -28 -6 -54 -9 -57 -6 -11 12 73 47 101
42 16 -3 37 -5 47 -5z m56 -165 c-3 -7 -17 -14 -30 -17 -18 -3 -24 -1 -20 8 2
7 10 15 17 17 7 3 17 20 21 39 l9 33 3 -33 c3 -19 2 -40 0 -47z m43 34 c0 -5
-4 -9 -10 -9 -5 0 -10 7 -10 16 0 8 5 12 10 9 6 -3 10 -10 10 -16z"/>
<path d="M1965 3396 c-16 -7 -50 -33 -74 -56 -44 -43 -44 -44 -22 -54 16 -7
35 -5 69 7 80 29 185 17 296 -33 36 -17 74 -30 83 -30 10 0 25 -4 33 -10 9 -6
-8 -7 -50 -5 -76 5 -152 -3 -144 -16 3 -5 -8 -9 -25 -9 -16 0 -31 4 -33 9 -4
11 -89 -11 -122 -33 -30 -19 -49 -60 -41 -85 3 -11 17 -16 45 -16 34 -1 40 2
40 20 0 22 28 55 47 55 6 0 14 -12 18 -27 11 -46 34 -63 81 -63 45 0 74 24 74
62 0 10 4 18 8 18 13 0 42 -34 42 -49 0 -8 12 -11 33 -9 25 2 33 8 35 26 3 18
8 23 23 19 15 -4 19 0 19 23 0 16 -4 31 -10 35 -14 9 -1 32 21 38 14 4 19 14
19 40 0 29 -9 46 -51 89 l-51 53 -128 1 c-71 1 -146 5 -167 8 -23 3 -50 0 -68
-8z"/>
<path d="M1637 2933 c-12 -11 -8 -50 6 -62 10 -8 18 -7 32 3 18 13 18 15 2 40
-18 26 -28 31 -40 19z"/>
<path d="M3363 1678 c3 -7 20 -49 38 -93 l32 -80 -17 -240 c-26 -373 -100
-1061 -122 -1137 -7 -22 -11 -23 81 7 351 115 683 318 963 590 114 110 280
300 271 309 -2 3 -56 22 -119 44 -63 22 -194 70 -290 106 -96 37 -206 79 -245
93 -111 42 -172 74 -297 156 -79 51 -122 87 -133 108 -9 17 -35 51 -58 76 -50
54 -118 94 -104 61z"/>
<path d="M1728 1597 c-19 -18 -54 -62 -77 -97 -37 -56 -57 -74 -149 -134 -141
-92 -301 -157 -712 -292 -132 -44 -240 -83 -240 -88 0 -18 116 -149 235 -264
295 -286 639 -489 1033 -611 l62 -19 0 24 c0 23 -4 54 -36 269 -8 55 -19 129
-24 165 -5 36 -14 94 -20 130 -63 414 -74 806 -25 933 11 26 -7 20 -47 -16z"/>
<path d="M2777 1024 c-3 -3 -94 -7 -203 -9 l-199 -4 -32 -58 c-18 -32 -37 -78
-42 -103 -9 -42 -8 -47 19 -75 16 -16 45 -65 64 -108 l36 -78 -15 -102 c-9
-56 -22 -138 -31 -182 -8 -44 -17 -128 -21 -187 l-6 -106 78 -7 c77 -8 368 1
413 12 20 5 22 11 22 65 0 76 -24 241 -56 383 -26 119 -29 156 -15 170 6 6 23
45 40 89 17 43 37 86 46 96 14 15 12 25 -26 108 -38 82 -58 110 -72 96z"/>
</g>
</svg>
